<?xml version="1.0" encoding="UTF-8" standalone="no"?>
<!-- Created with Inkscape (http://www.inkscape.org/) -->

<svg
   xmlns:dc="http://purl.org/dc/elements/1.1/"
   xmlns:cc="http://creativecommons.org/ns#"
   xmlns:rdf="http://www.w3.org/1999/02/22-rdf-syntax-ns#"
   xmlns:svg="http://www.w3.org/2000/svg"
   xmlns="http://www.w3.org/2000/svg"
   xmlns:sodipodi="http://sodipodi.sourceforge.net/DTD/sodipodi-0.dtd"
   xmlns:inkscape="http://www.inkscape.org/namespaces/inkscape"
   width="79.375mm"
   height="79.375mm"
   viewBox="0 0 79.375 79.375"
   version="1.1"
   id="svg8"
   inkscape:version="0.92.5 (2060ec1f9f, 2020-04-08)"
   sodipodi:docname="a-svm-myb.svg">
  <defs
     id="defs2" />
  <sodipodi:namedview
     id="base"
     pagecolor="#ffffff"
     bordercolor="#666666"
     borderopacity="1.0"
     inkscape:pageopacity="0.0"
     inkscape:pageshadow="2"
     inkscape:zoom="0.35"
     inkscape:cx="2007.1093"
     inkscape:cy="371.998"
     inkscape:document-units="mm"
     inkscape:current-layer="layer1"
     showgrid="false"
     fit-margin-top="0"
     fit-margin-left="0"
     fit-margin-right="0"
     fit-margin-bottom="0"
     inkscape:window-width="2560"
     inkscape:window-height="1389"
     inkscape:window-x="0"
     inkscape:window-y="32"
     inkscape:window-maximized="1" />
  <metadata
     id="metadata5">
    <rdf:RDF>
      <cc:Work
         rdf:about="">
        <dc:format>image/svg+xml</dc:format>
        <dc:type
           rdf:resource="http://purl.org/dc/dcmitype/StillImage" />
        <dc:title></dc:title>
      </cc:Work>
    </rdf:RDF>
  </metadata>
  <g
     inkscape:label="Layer 1"
     inkscape:groupmode="layer"
     id="layer1"
     transform="translate(-306.53869,5.75896)">
    <g
       id="g143"
       transform="translate(133.80357,-178.40476)">
      <path
         style="fill:#fefe00;stroke-width:0.26458332"
         d="m 188.8747,234.02916 c 0,-0.35277 0.17639,-0.52916 0.52917,-0.52916 0.35278,0 0.52917,0.17639 0.52917,0.52916 0,0.35278 -0.17639,0.52917 -0.52917,0.52917 -0.35278,0 -0.52917,-0.17639 -0.52917,-0.52917 z m 43.65625,-1.05833 c 0,-0.35278 0.17639,-0.52917 0.52917,-0.52917 0.35278,0 0.52917,0.17639 0.52917,0.52917 0,0.35278 -0.17639,0.52917 -0.52917,0.52917 -0.35278,0 -0.52917,-0.17639 -0.52917,-0.52917 z m 3.70417,0 c 0,-0.35278 0.17639,-0.52917 0.52917,-0.52917 0.35277,0 0.52916,0.17639 0.52916,0.52917 0,0.35278 -0.17639,0.52917 -0.52916,0.52917 -0.35278,0 -0.52917,-0.17639 -0.52917,-0.52917 z m -48.94792,-2.91042 c 0,-0.35277 0.17639,-0.52916 0.52917,-0.52916 0.35278,0 0.52917,0.17639 0.52917,0.52916 0,0.35278 -0.17639,0.52917 -0.52917,0.52917 -0.35278,0 -0.52917,-0.17639 -0.52917,-0.52917 z m 49.2125,-0.26458 c 0,-0.35278 0.17639,-0.52917 0.52917,-0.52917 0.35278,0 0.52917,0.17639 0.52917,0.52917 0,0.35278 -0.17639,0.52917 -0.52917,0.52917 -0.35278,0 -0.52917,-0.17639 -0.52917,-0.52917 z m -1.5875,-0.52917 c 0,-0.35277 0.17639,-0.52916 0.52917,-0.52916 0.35278,0 0.52917,0.17639 0.52917,0.52916 0,0.35278 -0.17639,0.52917 -0.52917,0.52917 -0.35278,0 -0.52917,-0.17639 -0.52917,-0.52917 z m -1.5875,-0.26458 c 0,-0.35278 0.17639,-0.52917 0.52917,-0.52917 0.35278,0 0.52917,0.17639 0.52917,0.52917 0,0.35278 -0.17639,0.52917 -0.52917,0.52917 -0.35278,0 -0.52917,-0.17639 -0.52917,-0.52917 z m -40.48125,-1.05833 c 0,-0.35278 0.17639,-0.52917 0.52917,-0.52917 0.35278,0 0.52917,0.17639 0.52917,0.52917 0,0.35277 -0.17639,0.52916 -0.52917,0.52916 -0.35278,0 -0.52917,-0.17639 -0.52917,-0.52916 z m -2.91041,-0.26459 c 0,-0.35277 0.17639,-0.52916 0.52916,-0.52916 0.35278,0 0.52917,0.17639 0.52917,0.52916 0,0.35278 -0.17639,0.52917 -0.52917,0.52917 -0.35277,0 -0.52916,-0.17639 -0.52916,-0.52917 z m 43.39166,0 c 0,-0.35277 0.17639,-0.52916 0.52917,-0.52916 0.35278,0 0.52917,0.17639 0.52917,0.52916 0,0.35278 -0.17639,0.52917 -0.52917,0.52917 -0.35278,0 -0.52917,-0.17639 -0.52917,-0.52917 z m -40.21666,-2.11666 c 0,-0.35278 0.17639,-0.52917 0.52916,-0.52917 0.35278,0 0.52917,0.17639 0.52917,0.52917 0,0.35277 -0.17639,0.52916 -0.52917,0.52916 -0.35277,0 -0.52916,-0.17639 -0.52916,-0.52916 z m 39.85286,-0.56224 c -0.23996,-1.19982 -0.21688,-1.28985 0.33073,-1.28985 0.34396,0 0.54681,0.25356 0.66146,0.82683 0.23996,1.19982 0.21688,1.28984 -0.33073,1.28984 -0.34396,0 -0.54681,-0.25356 -0.66146,-0.82682 z m -36.41328,-0.4961 c 0,-0.35277 0.17639,-0.52916 0.52917,-0.52916 0.35277,0 0.52916,0.17639 0.52916,0.52916 0,0.35278 -0.17639,0.52917 -0.52916,0.52917 -0.35278,0 -0.52917,-0.17639 -0.52917,-0.52917 z m 0.96051,-1.91823 c -0.26369,-0.98397 -0.19172,-1.25677 0.33155,-1.25677 0.45981,0 0.81149,0.6517 0.82099,1.52136 0.006,0.58926 -0.98469,0.36174 -1.15254,-0.26459 z m 15.70824,-2.05052 c 0,-0.35277 0.17639,-0.52916 0.52917,-0.52916 0.35277,0 0.52916,0.17639 0.52916,0.52916 0,0.35278 -0.17639,0.52917 -0.52916,0.52917 -0.35278,0 -0.52917,-0.17639 -0.52917,-0.52917 z m 16.66875,0.13229 c 0,-0.21828 -0.11906,-0.39687 -0.26458,-0.39687 -0.14552,0 -0.26459,-0.35719 -0.26459,-0.79375 0,-0.61736 0.11759,-0.79375 0.52917,-0.79375 0.38806,0 0.52917,0.17639 0.52917,0.66146 0,0.3638 0.11906,0.66146 0.26458,0.66146 0.14552,0 0.26458,0.23812 0.26458,0.52916 0,0.35278 -0.17639,0.52917 -0.52916,0.52917 -0.29398,0 -0.52917,-0.17639 -0.52917,-0.39688 z m -10.84792,-0.39687 c 0,-0.35278 0.17639,-0.52917 0.52917,-0.52917 0.35278,0 0.52917,-0.17639 0.52917,-0.52916 0,-0.35278 0.17639,-0.52917 0.52916,-0.52917 0.44098,0 0.52917,0.17639 0.52917,1.05833 V 220.8 h -1.05833 c -0.88195,0 -1.05834,-0.0882 -1.05834,-0.52917 z m -22.225,-0.26458 c 0,-0.35278 0.17639,-0.52917 0.52917,-0.52917 0.35278,0 0.52917,0.17639 0.52917,0.52917 0,0.35277 -0.17639,0.52916 -0.52917,0.52916 -0.35278,0 -0.52917,-0.17639 -0.52917,-0.52916 z m 18.52084,-0.52917 c 0,-0.35278 0.17639,-0.52917 0.52916,-0.52917 0.35278,0 0.52917,0.17639 0.52917,0.52917 0,0.35278 -0.17639,0.52917 -0.52917,0.52917 -0.35277,0 -0.52916,-0.17639 -0.52916,-0.52917 z m 2.38125,0 c 0,-0.35278 0.17639,-0.52917 0.52916,-0.52917 0.35278,0 0.52917,0.17639 0.52917,0.52917 0,0.35278 -0.17639,0.52917 -0.52917,0.52917 -0.35277,0 -0.52916,-0.17639 -0.52916,-0.52917 z m 9.26041,0 c 0,-0.35278 0.17639,-0.52917 0.52917,-0.52917 0.35278,0 0.52917,0.17639 0.52917,0.52917 0,0.35278 -0.17639,0.52917 -0.52917,0.52917 -0.35278,0 -0.52917,-0.17639 -0.52917,-0.52917 z m -14.81666,-0.26458 c 0,-0.35278 0.17639,-0.52917 0.52916,-0.52917 0.35278,0 0.52917,0.17639 0.52917,0.52917 0,0.35277 -0.17639,0.52916 -0.52917,0.52916 -0.35277,0 -0.52916,-0.17639 -0.52916,-0.52916 z m -4.23334,-0.26459 c 0,-0.35277 0.17639,-0.52916 0.52917,-0.52916 0.35278,0 0.52917,0.17639 0.52917,0.52916 0,0.35278 -0.17639,0.52917 -0.52917,0.52917 -0.35278,0 -0.52917,-0.17639 -0.52917,-0.52917 z m 24.34167,0 c 0,-0.35277 0.17639,-0.52916 0.52917,-0.52916 0.35277,0 0.52916,0.17639 0.52916,0.52916 0,0.35278 -0.17639,0.52917 -0.52916,0.52917 -0.35278,0 -0.52917,-0.17639 -0.52917,-0.52917 z m -31.22083,-0.52916 c 0,-0.35278 0.17639,-0.52917 0.52916,-0.52917 0.35278,0 0.52917,0.17639 0.52917,0.52917 0,0.35277 -0.17639,0.52916 -0.52917,0.52916 -0.35277,0 -0.52916,-0.17639 -0.52916,-0.52916 z m 20.90208,0 c 0,-0.35278 0.17639,-0.52917 0.52917,-0.52917 0.35277,0 0.52916,0.17639 0.52916,0.52917 0,0.35277 -0.17639,0.52916 -0.52916,0.52916 -0.35278,0 -0.52917,-0.17639 -0.52917,-0.52916 z m -5.02708,-0.26459 c 0,-0.35277 0.17639,-0.52916 0.52916,-0.52916 0.35278,0 0.52917,0.17639 0.52917,0.52916 0,0.35278 -0.17639,0.52917 -0.52917,0.52917 -0.35277,0 -0.52916,-0.17639 -0.52916,-0.52917 z m -12.7,-0.26458 c 0,-0.35278 0.17639,-0.52917 0.52916,-0.52917 0.35278,0 0.52917,0.17639 0.52917,0.52917 0,0.35278 -0.17639,0.52917 -0.52917,0.52917 -0.35277,0 -0.52916,-0.17639 -0.52916,-0.52917 z m 24.87083,-0.26458 c 0,-0.35278 0.17639,-0.52917 0.52917,-0.52917 0.35277,0 0.52916,0.17639 0.52916,0.52917 0,0.35277 -0.17639,0.52916 -0.52916,0.52916 -0.35278,0 -0.52917,-0.17639 -0.52917,-0.52916 z m -28.575,-0.79375 c 0,-0.35278 0.17639,-0.52917 0.52917,-0.52917 0.35277,0 0.52916,0.17639 0.52916,0.52917 0,0.35277 -0.17639,0.52916 -0.52916,0.52916 -0.35278,0 -0.52917,-0.17639 -0.52917,-0.52916 z m 10.31875,0 c 0,-0.35278 0.17639,-0.52917 0.52917,-0.52917 0.35277,0 0.52916,0.17639 0.52916,0.52917 0,0.35277 -0.17639,0.52916 -0.52916,0.52916 -0.35278,0 -0.52917,-0.17639 -0.52917,-0.52916 z m 9.26042,0 c 0,-0.35278 0.17639,-0.52917 0.52916,-0.52917 0.35278,0 0.52917,0.17639 0.52917,0.52917 0,0.35277 -0.17639,0.52916 -0.52917,0.52916 -0.35277,0 -0.52916,-0.17639 -0.52916,-0.52916 z m 2.38125,0 c 0,-0.35278 0.17639,-0.52917 0.52916,-0.52917 0.35278,0 0.52917,0.17639 0.52917,0.52917 0,0.35277 -0.17639,0.52916 -0.52917,0.52916 -0.35277,0 -0.52916,-0.17639 -0.52916,-0.52916 z m -16.13959,-0.26459 c 0,-0.35277 0.17639,-0.52916 0.52917,-0.52916 0.35278,0 0.52917,0.17639 0.52917,0.52916 0,0.35278 -0.17639,0.52917 -0.52917,0.52917 -0.35278,0 -0.52917,-0.17639 -0.52917,-0.52917 z m 6.61459,-0.26458 c 0,-0.35278 0.17639,-0.52917 0.52916,-0.52917 0.35278,0 0.52917,0.17639 0.52917,0.52917 0,0.35278 -0.17639,0.52917 -0.52917,0.52917 -0.35277,0 -0.52916,-0.17639 -0.52916,-0.52917 z m -10.84792,-0.26458 c 0,-0.29105 -0.11906,-0.52917 -0.26458,-0.52917 -0.14552,0 -0.26459,-0.23813 -0.26459,-0.52917 0,-0.35277 0.17639,-0.52916 0.52917,-0.52916 0.35278,0 0.52917,0.17639 0.52917,0.52916 0,0.29104 0.11906,0.52917 0.26458,0.52917 0.14552,0 0.26458,0.23812 0.26458,0.52917 0,0.35277 -0.17639,0.52916 -0.52916,0.52916 -0.35278,0 -0.52917,-0.17639 -0.52917,-0.52916 z m 2.64583,-1.85209 c 0,-0.35277 0.17639,-0.52916 0.52917,-0.52916 0.35278,0 0.52917,0.17639 0.52917,0.52916 0,0.35278 -0.17639,0.52917 -0.52917,0.52917 -0.35278,0 -0.52917,-0.17639 -0.52917,-0.52917 z m 23.8125,0 c 0,-0.35277 0.17639,-0.52916 0.52917,-0.52916 0.35278,0 0.52917,0.17639 0.52917,0.52916 0,0.35278 -0.17639,0.52917 -0.52917,0.52917 -0.35278,0 -0.52917,-0.17639 -0.52917,-0.52917 z m 1.85209,-0.79375 c 0,-0.35277 0.17639,-0.52916 0.52916,-0.52916 0.35278,0 0.52917,0.17639 0.52917,0.52916 0,0.35278 -0.17639,0.52917 -0.52917,0.52917 -0.35277,0 -0.52916,-0.17639 -0.52916,-0.52917 z m -2.91042,-1.85208 c 0,-0.35278 0.17639,-0.52917 0.52917,-0.52917 0.35277,0 0.52916,0.17639 0.52916,0.52917 0,0.35278 -0.17639,0.52917 -0.52916,0.52917 -0.35278,0 -0.52917,-0.17639 -0.52917,-0.52917 z m -23.8125,-1.05833 c 0,-0.35278 0.17639,-0.52917 0.52917,-0.52917 0.35277,0 0.52916,0.17639 0.52916,0.52917 0,0.35277 -0.17639,0.52916 -0.52916,0.52916 -0.35278,0 -0.52917,-0.17639 -0.52917,-0.52916 z m 24.87083,-0.79375 c 0,-0.35278 0.17639,-0.52917 0.52917,-0.52917 0.35278,0 0.52917,0.17639 0.52917,0.52917 0,0.35277 -0.17639,0.52916 -0.52917,0.52916 -0.35278,0 -0.52917,-0.17639 -0.52917,-0.52916 z m -24.07708,-0.52917 c 0,-0.35278 0.17639,-0.52917 0.52917,-0.52917 0.35277,0 0.52916,0.17639 0.52916,0.52917 0,0.35278 -0.17639,0.52917 -0.52916,0.52917 -0.35278,0 -0.52917,-0.17639 -0.52917,-0.52917 z m 18.43264,0.35278 c -0.36422,-0.36422 -0.15713,-0.88195 0.35278,-0.88195 0.35277,0 0.52916,0.17639 0.52916,0.52917 0,0.5099 -0.51773,0.71699 -0.88194,0.35278 z m -15.98524,-2.39159 c -0.38709,-0.0745 -0.59532,-0.30488 -0.59532,-0.6585 0,-0.46799 0.11532,-0.52077 0.82683,-0.37847 0.45475,0.0909 0.931,0.16536 1.05833,0.16536 0.12733,0 0.23151,0.23813 0.23151,0.52917 0,0.53274 -0.24593,0.5881 -1.52135,0.34244 z m -2.4474,-0.87161 c 0,-0.35277 0.17639,-0.52916 0.52917,-0.52916 0.35277,0 0.52916,0.17639 0.52916,0.52916 0,0.35278 -0.17639,0.52917 -0.52916,0.52917 -0.35278,0 -0.52917,-0.17639 -0.52917,-0.52917 z m 18.25625,0 c 0,-0.35277 0.17639,-0.52916 0.52917,-0.52916 0.35277,0 0.52916,0.17639 0.52916,0.52916 0,0.35278 -0.17639,0.52917 -0.52916,0.52917 -0.35278,0 -0.52917,-0.17639 -0.52917,-0.52917 z m 2.11667,-1.32291 c 0,-0.35278 0.17639,-0.52917 0.52916,-0.52917 0.35278,0 0.52917,0.17639 0.52917,0.52917 0,0.35277 -0.17639,0.52916 -0.52917,0.52916 -0.35277,0 -0.52916,-0.17639 -0.52916,-0.52916 z m -15.41198,-3.35739 c -0.52414,-0.13697 -0.64114,-1.14247 -0.13229,-1.13692 0.86965,0.01 1.52135,0.36119 1.52135,0.821 0,0.4929 -0.3806,0.57946 -1.38906,0.31592 z m 12.23698,-1.40511 c 0,-0.35278 0.17639,-0.52917 0.52916,-0.52917 0.35278,0 0.52917,0.17639 0.52917,0.52917 0,0.35277 -0.17639,0.52916 -0.52917,0.52916 -0.35277,0 -0.52916,-0.17639 -0.52916,-0.52916 z m -11.1125,-1.85209 c 0,-0.61736 0.11759,-0.79375 0.52916,-0.79375 0.41158,0 0.52917,0.17639 0.52917,0.79375 0,0.61736 -0.11759,0.79375 -0.52917,0.79375 -0.41157,0 -0.52916,-0.17639 -0.52916,-0.79375 z m 3.96875,-0.26458 c 0,-0.35278 0.17639,-0.52917 0.52916,-0.52917 0.35278,0 0.52917,0.17639 0.52917,0.52917 0,0.35278 -0.17639,0.52917 -0.52917,0.52917 -0.35277,0 -0.52916,-0.17639 -0.52916,-0.52917 z m 8.46666,0 c 0,-0.35278 0.17639,-0.52917 0.52917,-0.52917 0.35278,0 0.52917,0.17639 0.52917,0.52917 0,0.35278 -0.17639,0.52917 -0.52917,0.52917 -0.35278,0 -0.52917,-0.17639 -0.52917,-0.52917 z m -3.43958,-0.79375 c 0,-0.29398 0.17639,-0.52917 0.39687,-0.52917 0.21829,0 0.39688,-0.17859 0.39688,-0.39687 0,-0.22049 0.23519,-0.39688 0.52917,-0.39688 0.35277,0 0.52916,0.17639 0.52916,0.52917 0,0.29398 -0.17639,0.52917 -0.39687,0.52917 -0.21828,0 -0.39688,0.17859 -0.39688,0.39687 0,0.22049 -0.23518,0.39688 -0.52916,0.39688 -0.35278,0 -0.52917,-0.17639 -0.52917,-0.52917 z"
         id="path155"
         inkscape:connector-curvature="0" />
      <path
         style="fill:#6565fe;stroke-width:0.26458332"
         d="m 226.44554,245.67083 c 0,-0.35278 0.17639,-0.52917 0.52916,-0.52917 0.35278,0 0.52917,0.17639 0.52917,0.52917 0,0.35278 -0.17639,0.52917 -0.52917,0.52917 -0.35277,0 -0.52916,-0.17639 -0.52916,-0.52917 z m -32.54375,-3.175 c 0,-0.35278 0.17639,-0.52917 0.52916,-0.52917 0.35278,0 0.52917,0.17639 0.52917,0.52917 0,0.35278 -0.17639,0.52917 -0.52917,0.52917 -0.35277,0 -0.52916,-0.17639 -0.52916,-0.52917 z m -9.78959,-0.26458 c 0,-0.35278 0.17639,-0.52917 0.52917,-0.52917 0.35278,0 0.52917,0.17639 0.52917,0.52917 0,0.35277 -0.17639,0.52916 -0.52917,0.52916 -0.35278,0 -0.52917,-0.17639 -0.52917,-0.52916 z m 27.25209,-0.26459 c 0,-0.35277 0.17639,-0.52916 0.52916,-0.52916 0.35278,0 0.52917,0.17639 0.52917,0.52916 0,0.35278 -0.17639,0.52917 -0.52917,0.52917 -0.35277,0 -0.52916,-0.17639 -0.52916,-0.52917 z m 19.57916,-0.52916 c 0,-0.35278 0.17639,-0.52917 0.52917,-0.52917 0.35278,0 0.52917,0.17639 0.52917,0.52917 0,0.35277 -0.17639,0.52916 -0.52917,0.52916 -0.35278,0 -0.52917,-0.17639 -0.52917,-0.52916 z m -4.7625,-2.91042 c 0,-0.35278 0.17639,-0.52917 0.52917,-0.52917 0.35278,0 0.52917,0.17639 0.52917,0.52917 0,0.35278 -0.17639,0.52917 -0.52917,0.52917 -0.35278,0 -0.52917,-0.17639 -0.52917,-0.52917 z m -22.225,-4.23333 c 0,-0.35278 0.17639,-0.52917 0.52917,-0.52917 0.35278,0 0.52917,0.17639 0.52917,0.52917 0,0.35277 -0.17639,0.52916 -0.52917,0.52916 -0.35278,0 -0.52917,-0.17639 -0.52917,-0.52916 z M 221.41845,233.5 c 0,-0.35278 0.17639,-0.52917 0.52917,-0.52917 0.35278,0 0.52917,0.17639 0.52917,0.52917 0,0.35277 -0.17639,0.52916 -0.52917,0.52916 -0.35278,0 -0.52917,-0.17639 -0.52917,-0.52916 z m -7.14375,-2.11667 c 0,-0.35278 0.17639,-0.52917 0.52917,-0.52917 0.35278,0 0.52917,0.17639 0.52917,0.52917 0,0.35278 -0.17639,0.52917 -0.52917,0.52917 -0.35278,0 -0.52917,-0.17639 -0.52917,-0.52917 z m 33.60209,-0.52917 c 0,-0.35277 0.17639,-0.52916 0.52916,-0.52916 0.35278,0 0.52917,0.17639 0.52917,0.52916 0,0.35278 -0.17639,0.52917 -0.52917,0.52917 -0.35277,0 -0.52916,-0.17639 -0.52916,-0.52917 z m -38.89375,-5.02708 c 0,-0.35278 0.17639,-0.52917 0.52916,-0.52917 0.35278,0 0.52917,0.17639 0.52917,0.52917 0,0.35278 -0.17639,0.52917 -0.52917,0.52917 -0.35277,0 -0.52916,-0.17639 -0.52916,-0.52917 z m -22.75417,-1.05833 c 0,-0.35278 0.17639,-0.52917 0.52917,-0.52917 0.35277,0 0.52916,0.17639 0.52916,0.52917 0,0.35277 -0.17639,0.52916 -0.52916,0.52916 -0.35278,0 -0.52917,-0.17639 -0.52917,-0.52916 z m 62.70625,-4.49792 c 0,-0.35278 0.17639,-0.52917 0.52917,-0.52917 0.35277,0 0.52916,0.17639 0.52916,0.52917 0,0.35278 -0.17639,0.52917 -0.52916,0.52917 -0.35278,0 -0.52917,-0.17639 -0.52917,-0.52917 z m -54.23958,-4.7625 c 0,-0.35278 0.17639,-0.52917 0.52916,-0.52917 0.35278,0 0.52917,0.17639 0.52917,0.52917 0,0.35278 -0.17639,0.52917 -0.52917,0.52917 -0.35277,0 -0.52916,-0.17639 -0.52916,-0.52917 z m 25.66458,-0.52917 c 0,-0.35277 0.17639,-0.52916 0.52917,-0.52916 0.35277,0 0.52916,0.17639 0.52916,0.52916 0,0.35278 -0.17639,0.52917 -0.52916,0.52917 -0.35278,0 -0.52917,-0.17639 -0.52917,-0.52917 z m -4.7625,-1.5875 c 0,-0.35277 0.17639,-0.52916 0.52917,-0.52916 0.29104,0 0.52916,-0.11907 0.52916,-0.26459 0,-0.14552 0.23813,-0.26458 0.52917,-0.26458 0.35278,0 0.52917,0.17639 0.52917,0.52917 0,0.35277 -0.17639,0.52916 -0.52917,0.52916 -0.29104,0 -0.52917,0.11907 -0.52917,0.26459 0,0.14552 -0.23812,0.26458 -0.52916,0.26458 -0.35278,0 -0.52917,-0.17639 -0.52917,-0.52917 z m -3.70417,-1.4368 c 0,-0.5537 0.12616,-0.67986 0.67986,-0.67986 0.55371,0 0.66417,0.11047 0.59532,0.59531 -0.0543,0.38258 -0.29729,0.62552 -0.67986,0.67986 -0.48485,0.0689 -0.59532,-0.0416 -0.59532,-0.59531 z m 6.08542,0.11389 c 0,-0.35278 0.17639,-0.52917 0.52917,-0.52917 0.35277,0 0.52916,0.17639 0.52916,0.52917 0,0.35277 -0.17639,0.52916 -0.52916,0.52916 -0.35278,0 -0.52917,-0.17639 -0.52917,-0.52916 z m -7.9375,-0.26459 c 0,-0.35277 0.17639,-0.52916 0.52917,-0.52916 0.35277,0 0.52916,0.17639 0.52916,0.52916 0,0.35278 -0.17639,0.52917 -0.52916,0.52917 -0.35278,0 -0.52917,-0.17639 -0.52917,-0.52917 z m 4.23333,-0.52916 c 0,-0.35278 0.17639,-0.52917 0.52917,-0.52917 0.35278,0 0.52917,0.17639 0.52917,0.52917 0,0.35277 -0.17639,0.52916 -0.52917,0.52916 -0.35278,0 -0.52917,-0.17639 -0.52917,-0.52916 z m 7.67292,-1.32292 c 0,-0.35278 0.17639,-0.52917 0.52917,-0.52917 0.35277,0 0.52916,0.17639 0.52916,0.52917 0,0.35278 -0.17639,0.52917 -0.52916,0.52917 -0.35278,0 -0.52917,-0.17639 -0.52917,-0.52917 z m 19.84375,-0.26458 c 0,-0.35278 0.17639,-0.52917 0.52917,-0.52917 0.35277,0 0.52916,0.17639 0.52916,0.52917 0,0.35277 -0.17639,0.52916 -0.52916,0.52916 -0.35278,0 -0.52917,-0.17639 -0.52917,-0.52916 z m -64.55833,-0.26459 c 0,-0.35277 0.17639,-0.52916 0.52916,-0.52916 0.35278,0 0.52917,0.17639 0.52917,0.52916 0,0.35278 -0.17639,0.52917 -0.52917,0.52917 -0.35277,0 -0.52916,-0.17639 -0.52916,-0.52917 z m 39.06802,0.14628 c -0.0867,-0.22597 -0.34,-0.41086 -0.56285,-0.41086 -0.22284,0 -0.40517,-0.17859 -0.40517,-0.39688 0,-0.21828 -0.11907,-0.39687 -0.26459,-0.39687 -0.14552,0 -0.26458,-0.23813 -0.26458,-0.52917 0,-0.41157 0.17639,-0.52916 0.79375,-0.52916 0.6022,0 0.79375,0.12078 0.79375,0.50048 0,0.31657 0.24938,0.56308 0.67864,0.67081 0.512,0.1285 0.65817,0.3142 0.59531,0.75629 -0.0995,0.6997 -1.12748,0.9524 -1.36426,0.33536 z m -4.93677,-0.67544 c 0,-0.35278 0.17639,-0.52917 0.52916,-0.52917 0.35278,0 0.52917,0.17639 0.52917,0.52917 0,0.35277 -0.17639,0.52916 -0.52917,0.52916 -0.35277,0 -0.52916,-0.17639 -0.52916,-0.52916 z m 1.5875,-0.26459 c 0,-0.35277 0.17639,-0.52916 0.52916,-0.52916 0.35278,0 0.52917,0.17639 0.52917,0.52916 0,0.35278 -0.17639,0.52917 -0.52917,0.52917 -0.35277,0 -0.52916,-0.17639 -0.52916,-0.52917 z m 5.02708,-0.76067 c 0,-0.34396 0.25356,-0.54681 0.82682,-0.66146 1.19982,-0.23997 1.28985,-0.21688 1.28985,0.33073 0,0.34396 -0.25356,0.5468 -0.82683,0.66146 -1.19982,0.23996 -1.28984,0.21688 -1.28984,-0.33073 z m -6.08542,-1.62058 c 0,-0.35277 0.17639,-0.52916 0.52917,-0.52916 0.35278,0 0.52917,0.17639 0.52917,0.52916 0,0.35278 -0.17639,0.52917 -0.52917,0.52917 -0.35278,0 -0.52917,-0.17639 -0.52917,-0.52917 z m 5.02709,-0.26458 c 0,-0.35278 0.17639,-0.52917 0.52916,-0.52917 0.35278,0 0.52917,0.17639 0.52917,0.52917 0,0.35278 -0.17639,0.52917 -0.52917,0.52917 -0.35277,0 -0.52916,-0.17639 -0.52916,-0.52917 z m -2.11667,-0.79375 c 0,-0.29104 0.11906,-0.52917 0.26458,-0.52917 0.14552,0 0.26459,-0.17859 0.26459,-0.39687 0,-0.28663 0.29398,-0.39688 1.05833,-0.39688 0.88194,0 1.05833,0.0882 1.05833,0.52917 0,0.41158 -0.17639,0.52917 -0.79375,0.52917 -0.52916,0 -0.79375,0.13229 -0.79375,0.39687 0,0.22049 -0.23518,0.39688 -0.52916,0.39688 -0.35278,0 -0.52917,-0.17639 -0.52917,-0.52917 z m 3.175,-0.23372 c 0,-0.45981 0.6517,-0.8115 1.52135,-0.821 0.58927,-0.006 0.36174,0.98469 -0.26458,1.15254 -0.98397,0.26369 -1.25677,0.19173 -1.25677,-0.33154 z m -33.60208,-2.41211 c 0,-0.35278 0.17639,-0.52917 0.52916,-0.52917 0.35278,0 0.52917,0.17639 0.52917,0.52917 0,0.35277 -0.17639,0.52916 -0.52917,0.52916 -0.35277,0 -0.52916,-0.17639 -0.52916,-0.52916 z m 10.05416,-2.91042 c 0,-0.35278 0.17639,-0.52917 0.52917,-0.52917 0.35278,0 0.52917,0.17639 0.52917,0.52917 0,0.35278 -0.17639,0.52917 -0.52917,0.52917 -0.35278,0 -0.52917,-0.17639 -0.52917,-0.52917 z m -16.40416,-3.175 c 0,-0.35278 0.17639,-0.52917 0.52916,-0.52917 0.35278,0 0.52917,0.17639 0.52917,0.52917 0,0.35278 -0.17639,0.52917 -0.52917,0.52917 -0.35277,0 -0.52916,-0.17639 -0.52916,-0.52917 z m 20.90208,-3.43958 c 0,-0.35278 0.17639,-0.52917 0.52917,-0.52917 0.35277,0 0.52916,0.17639 0.52916,0.52917 0,0.35277 -0.17639,0.52916 -0.52916,0.52916 -0.35278,0 -0.52917,-0.17639 -0.52917,-0.52916 z m 28.83958,-1.85209 c 0,-0.35277 0.17639,-0.52916 0.52917,-0.52916 0.35278,0 0.52917,0.17639 0.52917,0.52916 0,0.35278 -0.17639,0.52917 -0.52917,0.52917 -0.35278,0 -0.52917,-0.17639 -0.52917,-0.52917 z m 9.525,-1.5875 c 0,-0.35277 0.17639,-0.52916 0.52917,-0.52916 0.35278,0 0.52917,0.17639 0.52917,0.52916 0,0.35278 -0.17639,0.52917 -0.52917,0.52917 -0.35278,0 -0.52917,-0.17639 -0.52917,-0.52917 z m -59.79583,-0.26458 c 0,-0.35278 0.17639,-0.52917 0.52917,-0.52917 0.35277,0 0.52916,0.17639 0.52916,0.52917 0,0.35278 -0.17639,0.52917 -0.52916,0.52917 -0.35278,0 -0.52917,-0.17639 -0.52917,-0.52917 z m 30.69167,-0.52917 c 0,-0.35277 0.17639,-0.52916 0.52916,-0.52916 0.35278,0 0.52917,0.17639 0.52917,0.52916 0,0.35278 -0.17639,0.52917 -0.52917,0.52917 -0.35277,0 -0.52916,-0.17639 -0.52916,-0.52917 z m -19.05,-2.38125 c 0,-0.35277 0.17639,-0.52916 0.52916,-0.52916 0.35278,0 0.52917,0.17639 0.52917,0.52916 0,0.35278 -0.17639,0.52917 -0.52917,0.52917 -0.35277,0 -0.52916,-0.17639 -0.52916,-0.52917 z m -7.9375,-2.64583 c 0,-0.35278 0.17639,-0.52917 0.52916,-0.52917 0.35278,0 0.52917,0.17639 0.52917,0.52917 0,0.35278 -0.17639,0.52917 -0.52917,0.52917 -0.35277,0 -0.52916,-0.17639 -0.52916,-0.52917 z M 187.02262,182.7 c 0,-0.35278 0.17639,-0.52917 0.52917,-0.52917 0.35277,0 0.52916,0.17639 0.52916,0.52917 0,0.35277 -0.17639,0.52916 -0.52916,0.52916 -0.35278,0 -0.52917,-0.17639 -0.52917,-0.52916 z"
         id="path153"
         inkscape:connector-curvature="0" />
      <path
         style="fill:#a90065;stroke-width:0.26458332"
         d="m 214.01012,186.66875 c 0,-0.35278 0.17639,-0.52917 0.52917,-0.52917 0.35277,0 0.52916,0.17639 0.52916,0.52917 0,0.35277 -0.17639,0.52916 -0.52916,0.52916 -0.35278,0 -0.52917,-0.17639 -0.52917,-0.52916 z m 2.64583,-0.52917 c 0,-0.35278 0.17639,-0.52917 0.52917,-0.52917 0.35278,0 0.52917,0.17639 0.52917,0.52917 0,0.35278 -0.17639,0.52917 -0.52917,0.52917 -0.35278,0 -0.52917,-0.17639 -0.52917,-0.52917 z m 2.11667,-1.05833 c 0,-0.35278 0.17639,-0.52917 0.52917,-0.52917 0.35277,0 0.52916,0.17639 0.52916,0.52917 0,0.35277 -0.17639,0.52916 -0.52916,0.52916 -0.35278,0 -0.52917,-0.17639 -0.52917,-0.52916 z m -2.11667,-0.26459 c 0,-0.35277 0.17639,-0.52916 0.52917,-0.52916 0.35278,0 0.52917,0.17639 0.52917,0.52916 0,0.35278 -0.17639,0.52917 -0.52917,0.52917 -0.35278,0 -0.52917,-0.17639 -0.52917,-0.52917 z m 5.82084,-0.79375 c 0,-0.44097 0.17639,-0.52916 1.05833,-0.52916 0.88194,0 1.05833,0.0882 1.05833,0.52916 0,0.44098 -0.17639,0.52917 -1.05833,0.52917 -0.88194,0 -1.05833,-0.0882 -1.05833,-0.52917 z m -11.1125,-0.26458 c 0,-0.35278 0.17639,-0.52917 0.52916,-0.52917 0.35278,0 0.52917,0.17639 0.52917,0.52917 0,0.35278 -0.17639,0.52917 -0.52917,0.52917 -0.35277,0 -0.52916,-0.17639 -0.52916,-0.52917 z m 1.85208,0 c 0,-0.35278 0.17639,-0.52917 0.52917,-0.52917 0.35277,0 0.52916,0.17639 0.52916,0.52917 0,0.35278 -0.17639,0.52917 -0.52916,0.52917 -0.35278,0 -0.52917,-0.17639 -0.52917,-0.52917 z m 1.32292,-0.79375 c 0,-0.35278 0.17639,-0.52917 0.52916,-0.52917 0.35278,0 0.52917,0.17639 0.52917,0.52917 0,0.35278 -0.17639,0.52917 -0.52917,0.52917 -0.35277,0 -0.52916,-0.17639 -0.52916,-0.52917 z m -3.96875,-0.52917 c 0,-0.14552 -0.22325,-0.26458 -0.4961,-0.26458 -0.34396,0 -0.5468,-0.25356 -0.66146,-0.82682 -0.23996,-1.19982 -0.21688,-1.28985 0.33073,-1.28985 0.33955,0 0.54619,0.25048 0.65485,0.79375 0.11367,0.56837 0.31088,0.79375 0.69453,0.79375 0.35939,0 0.53578,0.17421 0.53578,0.52917 0,0.35278 -0.17639,0.52917 -0.52917,0.52917 -0.29104,0 -0.52916,-0.11907 -0.52916,-0.26459 z m 17.4625,-0.52916 c 0,-0.35278 0.17639,-0.52917 0.52916,-0.52917 0.35278,0 0.52917,0.17639 0.52917,0.52917 0,0.35277 -0.17639,0.52916 -0.52917,0.52916 -0.35277,0 -0.52916,-0.17639 -0.52916,-0.52916 z m -2.91042,-1.05834 c 0,-0.35277 0.17639,-0.52916 0.52917,-0.52916 0.35277,0 0.52916,0.17639 0.52916,0.52916 0,0.35278 -0.17639,0.52917 -0.52916,0.52917 -0.35278,0 -0.52917,-0.17639 -0.52917,-0.52917 z m -13.22917,-1.5875 c 0,-0.35277 0.17639,-0.52916 0.52917,-0.52916 0.35278,0 0.52917,0.17639 0.52917,0.52916 0,0.35278 -0.17639,0.52917 -0.52917,0.52917 -0.35278,0 -0.52917,-0.17639 -0.52917,-0.52917 z m 13.49375,-1.05833 c 0,-0.29104 -0.11906,-0.52917 -0.26458,-0.52917 -0.14552,0 -0.26458,-0.23812 -0.26458,-0.52916 0,-0.35278 0.17639,-0.52917 0.52916,-0.52917 0.35278,0 0.52917,0.17639 0.52917,0.52917 0,0.29104 0.11906,0.52916 0.26458,0.52916 0.14552,0 0.26459,0.23813 0.26459,0.52917 0,0.35278 -0.17639,0.52917 -0.52917,0.52917 -0.35278,0 -0.52917,-0.17639 -0.52917,-0.52917 z m -16.13958,-0.52917 c 0,-0.35277 0.17639,-0.52916 0.52917,-0.52916 0.35277,0 0.52916,0.17639 0.52916,0.52916 0,0.35278 -0.17639,0.52917 -0.52916,0.52917 -0.35278,0 -0.52917,-0.17639 -0.52917,-0.52917 z m 18.25625,0 c 0,-0.35277 0.17639,-0.52916 0.52917,-0.52916 0.35277,0 0.52916,0.17639 0.52916,0.52916 0,0.35278 -0.17639,0.52917 -0.52916,0.52917 -0.35278,0 -0.52917,-0.17639 -0.52917,-0.52917 z m -16.93333,-0.26458 c 0,-0.35278 0.17639,-0.52917 0.52916,-0.52917 0.35278,0 0.52917,0.17639 0.52917,0.52917 0,0.35278 -0.17639,0.52917 -0.52917,0.52917 -0.35277,0 -0.52916,-0.17639 -0.52916,-0.52917 z m 2.38125,-0.52917 c 0,-0.35277 0.17639,-0.52916 0.52916,-0.52916 0.35278,0 0.52917,0.17639 0.52917,0.52916 0,0.35278 -0.17639,0.52917 -0.52917,0.52917 -0.35277,0 -0.52916,-0.17639 -0.52916,-0.52917 z m 9.78958,-0.52916 c 0,-0.35278 0.17639,-0.52917 0.52917,-0.52917 0.35277,0 0.52916,0.17639 0.52916,0.52917 0,0.35277 -0.17639,0.52916 -0.52916,0.52916 -0.35278,0 -0.52917,-0.17639 -0.52917,-0.52916 z m -4.0349,0.0822 c -0.52414,-0.13698 -0.64114,-1.14248 -0.13229,-1.13692 0.86966,0.009 1.52136,0.36118 1.52136,0.82099 0,0.4929 -0.3806,0.57946 -1.38907,0.31593 z m -3.10885,-0.61137 c 0,-0.35278 0.17639,-0.52917 0.52917,-0.52917 0.35277,0 0.52916,0.17639 0.52916,0.52917 0,0.35278 -0.17639,0.52917 -0.52916,0.52917 -0.35278,0 -0.52917,-0.17639 -0.52917,-0.52917 z m 9.26042,0 c 0,-0.35278 0.17639,-0.52917 0.52916,-0.52917 0.35278,0 0.52917,0.17639 0.52917,0.52917 0,0.35278 -0.17639,0.52917 -0.52917,0.52917 -0.35277,0 -0.52916,-0.17639 -0.52916,-0.52917 z"
         id="path151"
         inkscape:connector-curvature="0" />
      <path
         style="fill:#7e7e00;stroke-width:0.26458332"
         d="m 187.91122,237.44745 c -3.4155,-1.00076 -5.78965,-5.08127 -4.45644,-7.65942 0.2205,-0.42639 1.26229,-1.35677 2.3151,-2.0675 2.20934,-1.49148 3.87574,-3.20322 4.70963,-4.83779 1.16903,-2.2915 1.92156,-3.13508 4.10768,-4.60475 3.23646,-2.17578 4.12346,-3.66671 4.56723,-7.67683 0.33935,-3.06659 0.77322,-4.15967 2.93563,-7.39596 0.97233,-1.4552 2.15315,-3.37015 2.62403,-4.25544 1.69204,-3.18111 2.96056,-4.18879 7.00529,-5.56479 2.46116,-0.83727 7.68867,-1.76362 8.72961,-1.54694 1.34358,0.27967 2.84574,1.2771 4.43818,2.94692 1.88158,1.97302 2.24041,2.69413 2.47841,4.98067 0.10603,1.01865 0.3158,2.09021 0.46616,2.38125 0.34294,0.66382 2.26343,2.98821 4.04423,4.89479 0.74756,0.80037 1.66094,1.93341 2.02972,2.51787 1.04774,1.66047 3.02427,7.19466 3.64923,10.21766 0.39647,1.91778 0.97952,3.61789 1.9387,5.65301 1.33537,2.83331 1.37172,2.97352 1.37172,5.29167 0,2.77446 -0.47298,3.96622 -2.09453,5.27757 -0.94347,0.76299 -1.12609,0.80753 -3.28866,0.80205 -1.87804,-0.005 -2.5038,-0.11717 -3.48035,-0.62517 -2.69546,-1.40219 -3.41959,-2.70368 -3.68498,-6.62306 -0.19388,-2.8634 -0.54342,-3.95456 -1.56209,-4.87644 -1.11187,-1.00623 -2.35811,-1.2073 -7.55786,-1.21938 -4.81218,-0.0112 -5.09266,-0.0414 -7.47764,-0.80536 -2.01743,-0.64624 -2.93293,-0.79375 -4.92629,-0.79375 -3.27603,0 -3.86142,0.32823 -5.53339,3.10257 -0.91484,1.51802 -1.94521,2.73494 -3.54678,4.18897 -1.78734,1.62266 -2.45241,2.44041 -3.1941,3.92736 -1.07367,2.1525 -1.94488,3.18168 -3.26271,3.85429 -1.25231,0.63918 -2.34753,0.80812 -3.34473,0.51593 z m 2.02182,-3.41829 c 0,-0.35277 -0.17639,-0.52916 -0.52917,-0.52916 -0.35278,0 -0.52917,0.17639 -0.52917,0.52916 0,0.35278 0.17639,0.52917 0.52917,0.52917 0.35278,0 0.52917,-0.17639 0.52917,-0.52917 z m 43.65625,-1.05833 c 0,-0.35278 -0.17639,-0.52917 -0.52917,-0.52917 -0.35278,0 -0.52917,0.17639 -0.52917,0.52917 0,0.35278 0.17639,0.52917 0.52917,0.52917 0.35278,0 0.52917,-0.17639 0.52917,-0.52917 z m 3.70416,0 c 0,-0.35278 -0.17639,-0.52917 -0.52916,-0.52917 -0.35278,0 -0.52917,0.17639 -0.52917,0.52917 0,0.35278 0.17639,0.52917 0.52917,0.52917 0.35277,0 0.52916,-0.17639 0.52916,-0.52917 z m -48.94791,-2.91042 c 0,-0.35277 -0.17639,-0.52916 -0.52917,-0.52916 -0.35278,0 -0.52917,0.17639 -0.52917,0.52916 0,0.35278 0.17639,0.52917 0.52917,0.52917 0.35278,0 0.52917,-0.17639 0.52917,-0.52917 z m 49.2125,-0.26458 c 0,-0.35278 -0.17639,-0.52917 -0.52917,-0.52917 -0.35278,0 -0.52917,0.17639 -0.52917,0.52917 0,0.35278 0.17639,0.52917 0.52917,0.52917 0.35278,0 0.52917,-0.17639 0.52917,-0.52917 z m -1.5875,-0.52917 c 0,-0.35277 -0.17639,-0.52916 -0.52917,-0.52916 -0.35278,0 -0.52917,0.17639 -0.52917,0.52916 0,0.35278 0.17639,0.52917 0.52917,0.52917 0.35278,0 0.52917,-0.17639 0.52917,-0.52917 z m -1.5875,-0.26458 c 0,-0.35278 -0.17639,-0.52917 -0.52917,-0.52917 -0.35278,0 -0.52917,0.17639 -0.52917,0.52917 0,0.35278 0.17639,0.52917 0.52917,0.52917 0.35278,0 0.52917,-0.17639 0.52917,-0.52917 z m -40.48125,-1.05833 c 0,-0.35278 -0.17639,-0.52917 -0.52917,-0.52917 -0.35278,0 -0.52917,0.17639 -0.52917,0.52917 0,0.35277 0.17639,0.52916 0.52917,0.52916 0.35278,0 0.52917,-0.17639 0.52917,-0.52916 z m -2.91042,-0.26459 c 0,-0.35277 -0.17639,-0.52916 -0.52917,-0.52916 -0.35277,0 -0.52916,0.17639 -0.52916,0.52916 0,0.35278 0.17639,0.52917 0.52916,0.52917 0.35278,0 0.52917,-0.17639 0.52917,-0.52917 z m 43.39167,0 c 0,-0.35277 -0.17639,-0.52916 -0.52917,-0.52916 -0.35278,0 -0.52917,0.17639 -0.52917,0.52916 0,0.35278 0.17639,0.52917 0.52917,0.52917 0.35278,0 0.52917,-0.17639 0.52917,-0.52917 z m -40.21667,-2.11666 c 0,-0.35278 -0.17639,-0.52917 -0.52917,-0.52917 -0.35277,0 -0.52916,0.17639 -0.52916,0.52917 0,0.35277 0.17639,0.52916 0.52916,0.52916 0.35278,0 0.52917,-0.17639 0.52917,-0.52916 z m 39.95208,0.0331 c 0,-1.00909 -0.38424,-1.88516 -0.82682,-1.88516 -0.54761,0 -0.57069,0.09 -0.33073,1.28985 0.11465,0.57326 0.3175,0.82682 0.66146,0.82682 0.27285,0 0.49609,-0.10418 0.49609,-0.23151 z m -36.5125,-1.09141 c 0,-0.35277 -0.17639,-0.52916 -0.52916,-0.52916 -0.35278,0 -0.52917,0.17639 -0.52917,0.52916 0,0.35278 0.17639,0.52917 0.52917,0.52917 0.35277,0 0.52916,-0.17639 0.52916,-0.52917 z m 1.05472,-1.65364 c -0.009,-0.86966 -0.36118,-1.52136 -0.82099,-1.52136 -0.52327,0 -0.59524,0.2728 -0.33155,1.25677 0.16785,0.62633 1.15898,0.85385 1.15254,0.26459 z m 15.61403,-2.31511 c 0,-0.35277 -0.17639,-0.52916 -0.52916,-0.52916 -0.35278,0 -0.52917,0.17639 -0.52917,0.52916 0,0.35278 0.17639,0.52917 0.52917,0.52917 0.35277,0 0.52916,-0.17639 0.52916,-0.52917 z m 16.66875,0 c 0,-0.29104 -0.11906,-0.52916 -0.26458,-0.52916 -0.14552,0 -0.26458,-0.29766 -0.26458,-0.66146 0,-0.48507 -0.14111,-0.66146 -0.52917,-0.66146 -0.41158,0 -0.52917,0.17639 -0.52917,0.79375 0,0.43656 0.11907,0.79375 0.26459,0.79375 0.14552,0 0.26458,0.17859 0.26458,0.39687 0,0.22049 0.23519,0.39688 0.52917,0.39688 0.35277,0 0.52916,-0.17639 0.52916,-0.52917 z m -9.78958,-0.79375 c 0,-0.88194 -0.0882,-1.05833 -0.52917,-1.05833 -0.35277,0 -0.52916,0.17639 -0.52916,0.52917 0,0.35277 -0.17639,0.52916 -0.52917,0.52916 -0.35278,0 -0.52917,0.17639 -0.52917,0.52917 0,0.44097 0.17639,0.52917 1.05834,0.52917 h 1.05833 z m -23.28333,0.26459 c 0,-0.35278 -0.17639,-0.52917 -0.52917,-0.52917 -0.35278,0 -0.52917,0.17639 -0.52917,0.52917 0,0.35277 0.17639,0.52916 0.52917,0.52916 0.35278,0 0.52917,-0.17639 0.52917,-0.52916 z m 18.52083,-0.52917 c 0,-0.35278 -0.17639,-0.52917 -0.52917,-0.52917 -0.35277,0 -0.52916,0.17639 -0.52916,0.52917 0,0.35278 0.17639,0.52917 0.52916,0.52917 0.35278,0 0.52917,-0.17639 0.52917,-0.52917 z m 2.38125,0 c 0,-0.35278 -0.17639,-0.52917 -0.52917,-0.52917 -0.35277,0 -0.52916,0.17639 -0.52916,0.52917 0,0.35278 0.17639,0.52917 0.52916,0.52917 0.35278,0 0.52917,-0.17639 0.52917,-0.52917 z m 9.26042,0 c 0,-0.35278 -0.17639,-0.52917 -0.52917,-0.52917 -0.35278,0 -0.52917,0.17639 -0.52917,0.52917 0,0.35278 0.17639,0.52917 0.52917,0.52917 0.35278,0 0.52917,-0.17639 0.52917,-0.52917 z m -14.81667,-0.26458 c 0,-0.35278 -0.17639,-0.52917 -0.52917,-0.52917 -0.35277,0 -0.52916,0.17639 -0.52916,0.52917 0,0.35277 0.17639,0.52916 0.52916,0.52916 0.35278,0 0.52917,-0.17639 0.52917,-0.52916 z m -4.23333,-0.26459 c 0,-0.35277 -0.17639,-0.52916 -0.52917,-0.52916 -0.35278,0 -0.52917,0.17639 -0.52917,0.52916 0,0.35278 0.17639,0.52917 0.52917,0.52917 0.35278,0 0.52917,-0.17639 0.52917,-0.52917 z m 24.34166,0 c 0,-0.35277 -0.17639,-0.52916 -0.52916,-0.52916 -0.35278,0 -0.52917,0.17639 -0.52917,0.52916 0,0.35278 0.17639,0.52917 0.52917,0.52917 0.35277,0 0.52916,-0.17639 0.52916,-0.52917 z m -31.22083,-0.52916 c 0,-0.35278 -0.17639,-0.52917 -0.52917,-0.52917 -0.35277,0 -0.52916,0.17639 -0.52916,0.52917 0,0.35277 0.17639,0.52916 0.52916,0.52916 0.35278,0 0.52917,-0.17639 0.52917,-0.52916 z m 20.90208,0 c 0,-0.35278 -0.17639,-0.52917 -0.52916,-0.52917 -0.35278,0 -0.52917,0.17639 -0.52917,0.52917 0,0.35277 0.17639,0.52916 0.52917,0.52916 0.35277,0 0.52916,-0.17639 0.52916,-0.52916 z m -5.02708,-0.26459 c 0,-0.35277 -0.17639,-0.52916 -0.52917,-0.52916 -0.35277,0 -0.52916,0.17639 -0.52916,0.52916 0,0.35278 0.17639,0.52917 0.52916,0.52917 0.35278,0 0.52917,-0.17639 0.52917,-0.52917 z m -12.7,-0.26458 c 0,-0.35278 -0.17639,-0.52917 -0.52917,-0.52917 -0.35277,0 -0.52916,0.17639 -0.52916,0.52917 0,0.35278 0.17639,0.52917 0.52916,0.52917 0.35278,0 0.52917,-0.17639 0.52917,-0.52917 z M 230.1497,217.625 c 0,-0.35278 -0.17639,-0.52917 -0.52916,-0.52917 -0.35278,0 -0.52917,0.17639 -0.52917,0.52917 0,0.35277 0.17639,0.52916 0.52917,0.52916 0.35277,0 0.52916,-0.17639 0.52916,-0.52916 z m -28.575,-0.79375 c 0,-0.35278 -0.17639,-0.52917 -0.52916,-0.52917 -0.35278,0 -0.52917,0.17639 -0.52917,0.52917 0,0.35277 0.17639,0.52916 0.52917,0.52916 0.35277,0 0.52916,-0.17639 0.52916,-0.52916 z m 10.31875,0 c 0,-0.35278 -0.17639,-0.52917 -0.52916,-0.52917 -0.35278,0 -0.52917,0.17639 -0.52917,0.52917 0,0.35277 0.17639,0.52916 0.52917,0.52916 0.35277,0 0.52916,-0.17639 0.52916,-0.52916 z m 9.26042,0 c 0,-0.35278 -0.17639,-0.52917 -0.52917,-0.52917 -0.35277,0 -0.52916,0.17639 -0.52916,0.52917 0,0.35277 0.17639,0.52916 0.52916,0.52916 0.35278,0 0.52917,-0.17639 0.52917,-0.52916 z m 2.38125,0 c 0,-0.35278 -0.17639,-0.52917 -0.52917,-0.52917 -0.35277,0 -0.52916,0.17639 -0.52916,0.52917 0,0.35277 0.17639,0.52916 0.52916,0.52916 0.35278,0 0.52917,-0.17639 0.52917,-0.52916 z m -16.13958,-0.26459 c 0,-0.35277 -0.17639,-0.52916 -0.52917,-0.52916 -0.35278,0 -0.52917,0.17639 -0.52917,0.52916 0,0.35278 0.17639,0.52917 0.52917,0.52917 0.35278,0 0.52917,-0.17639 0.52917,-0.52917 z m 6.61458,-0.26458 c 0,-0.35278 -0.17639,-0.52917 -0.52917,-0.52917 -0.35277,0 -0.52916,0.17639 -0.52916,0.52917 0,0.35278 0.17639,0.52917 0.52916,0.52917 0.35278,0 0.52917,-0.17639 0.52917,-0.52917 z M 203.1622,216.0375 c 0,-0.29105 -0.11906,-0.52917 -0.26458,-0.52917 -0.14552,0 -0.26458,-0.23813 -0.26458,-0.52917 0,-0.35277 -0.17639,-0.52916 -0.52917,-0.52916 -0.35278,0 -0.52917,0.17639 -0.52917,0.52916 0,0.29104 0.11907,0.52917 0.26459,0.52917 0.14552,0 0.26458,0.23812 0.26458,0.52917 0,0.35277 0.17639,0.52916 0.52917,0.52916 0.35277,0 0.52916,-0.17639 0.52916,-0.52916 z m 20.769,-1.20798 c 1.71917,-0.81581 1.76347,-2.31865 0.1234,-4.18659 -0.46138,-0.52549 -0.70748,-0.95543 -0.54689,-0.95543 0.1606,0 0.29199,-0.23813 0.29199,-0.52917 0,-0.5696 -0.93486,-0.76729 -1.11222,-0.2352 -0.0539,0.16169 -0.45077,-0.21504 -0.88195,-0.83716 -0.69965,-1.0095 -0.78579,-1.35313 -0.80108,-3.19553 -0.0185,-2.23393 -0.30422,-2.81415 -1.75505,-3.56441 -2.18288,-1.12881 -7.59746,0.78747 -8.72739,3.08873 -3.28784,6.69614 -3.53554,7.72264 -2.17247,9.00317 0.60324,0.56672 0.90127,0.623 3.35971,0.63448 2.0722,0.01 2.90182,0.12258 3.57785,0.48692 0.48407,0.26088 1.37703,0.5805 1.98438,0.71027 1.56503,0.33439 5.60708,0.0794 6.65972,-0.42008 z m -18.12316,-0.64411 c 0,-0.35277 -0.17639,-0.52916 -0.52917,-0.52916 -0.35278,0 -0.52917,0.17639 -0.52917,0.52916 0,0.35278 0.17639,0.52917 0.52917,0.52917 0.35278,0 0.52917,-0.17639 0.52917,-0.52917 z m 23.8125,0 c 0,-0.35277 -0.17639,-0.52916 -0.52917,-0.52916 -0.35278,0 -0.52917,0.17639 -0.52917,0.52916 0,0.35278 0.17639,0.52917 0.52917,0.52917 0.35278,0 0.52917,-0.17639 0.52917,-0.52917 z m 1.85208,-0.79375 c 0,-0.35277 -0.17639,-0.52916 -0.52917,-0.52916 -0.35277,0 -0.52916,0.17639 -0.52916,0.52916 0,0.35278 0.17639,0.52917 0.52916,0.52917 0.35278,0 0.52917,-0.17639 0.52917,-0.52917 z m -2.91042,-1.85208 c 0,-0.35278 -0.17639,-0.52917 -0.52916,-0.52917 -0.35278,0 -0.52917,0.17639 -0.52917,0.52917 0,0.35278 0.17639,0.52917 0.52917,0.52917 0.35277,0 0.52916,-0.17639 0.52916,-0.52917 z m -23.8125,-1.05833 c 0,-0.35278 -0.17639,-0.52917 -0.52916,-0.52917 -0.35278,0 -0.52917,0.17639 -0.52917,0.52917 0,0.35277 0.17639,0.52916 0.52917,0.52916 0.35277,0 0.52916,-0.17639 0.52916,-0.52916 z m 24.87084,-0.79375 c 0,-0.35278 -0.17639,-0.52917 -0.52917,-0.52917 -0.35278,0 -0.52917,0.17639 -0.52917,0.52917 0,0.35277 0.17639,0.52916 0.52917,0.52916 0.35278,0 0.52917,-0.17639 0.52917,-0.52916 z m -24.07709,-0.52917 c 0,-0.35278 -0.17639,-0.52917 -0.52916,-0.52917 -0.35278,0 -0.52917,0.17639 -0.52917,0.52917 0,0.35278 0.17639,0.52917 0.52917,0.52917 0.35277,0 0.52916,-0.17639 0.52916,-0.52917 z m 2.91042,-2.38125 c 0,-0.29104 -0.10418,-0.52917 -0.23151,-0.52917 -0.12733,0 -0.60358,-0.0744 -1.05833,-0.16536 -0.71151,-0.1423 -0.82683,-0.0895 -0.82683,0.37847 0,0.35362 0.20823,0.58395 0.59532,0.6585 1.27542,0.24566 1.52135,0.1903 1.52135,-0.34244 z m -2.91042,-0.52917 c 0,-0.35277 -0.17639,-0.52916 -0.52916,-0.52916 -0.35278,0 -0.52917,0.17639 -0.52917,0.52916 0,0.35278 0.17639,0.52917 0.52917,0.52917 0.35277,0 0.52916,-0.17639 0.52916,-0.52917 z m 18.25625,0 c 0,-0.35277 -0.17639,-0.52916 -0.52916,-0.52916 -0.35278,0 -0.52917,0.17639 -0.52917,0.52916 0,0.35278 0.17639,0.52917 0.52917,0.52917 0.35277,0 0.52916,-0.17639 0.52916,-0.52917 z m 2.11667,-1.32291 c 0,-0.35278 -0.17639,-0.52917 -0.52917,-0.52917 -0.35277,0 -0.52916,0.17639 -0.52916,0.52917 0,0.35277 0.17639,0.52916 0.52916,0.52916 0.35278,0 0.52917,-0.17639 0.52917,-0.52916 z m -15.08125,-3.67331 c 0,-0.45981 -0.6517,-0.8115 -1.52135,-0.821 -0.50885,-0.006 -0.39185,0.99995 0.13229,1.13692 1.00846,0.26354 1.38906,0.17698 1.38906,-0.31592 z m 11.90625,-1.08919 c 0,-0.35278 -0.17639,-0.52917 -0.52917,-0.52917 -0.35277,0 -0.52916,0.17639 -0.52916,0.52917 0,0.35277 0.17639,0.52916 0.52916,0.52916 0.35278,0 0.52917,-0.17639 0.52917,-0.52916 z m -11.1125,-1.85209 c 0,-0.61736 -0.11759,-0.79375 -0.52917,-0.79375 -0.41157,0 -0.52916,0.17639 -0.52916,0.79375 0,0.61736 0.11759,0.79375 0.52916,0.79375 0.41158,0 0.52917,-0.17639 0.52917,-0.79375 z m 3.96875,-0.26458 c 0,-0.35278 -0.17639,-0.52917 -0.52917,-0.52917 -0.35277,0 -0.52916,0.17639 -0.52916,0.52917 0,0.35278 0.17639,0.52917 0.52916,0.52917 0.35278,0 0.52917,-0.17639 0.52917,-0.52917 z m 8.46667,0 c 0,-0.35278 -0.17639,-0.52917 -0.52917,-0.52917 -0.35278,0 -0.52917,0.17639 -0.52917,0.52917 0,0.35278 0.17639,0.52917 0.52917,0.52917 0.35278,0 0.52917,-0.17639 0.52917,-0.52917 z m -3.43959,-0.66146 c 0,-0.21828 0.1786,-0.39687 0.39688,-0.39687 0.22048,0 0.39687,-0.23519 0.39687,-0.52917 0,-0.35278 -0.17639,-0.52917 -0.52916,-0.52917 -0.29398,0 -0.52917,0.17639 -0.52917,0.39688 0,0.21828 -0.17859,0.39687 -0.39688,0.39687 -0.22048,0 -0.39687,0.23519 -0.39687,0.52917 0,0.35278 0.17639,0.52917 0.52917,0.52917 0.29398,0 0.52916,-0.17639 0.52916,-0.39688 z"
         id="path149"
         inkscape:connector-curvature="0" />
      <path
         style="fill:#7e003b;stroke-width:0.26458332"
         d="m 213.29046,189.14706 c -0.46857,-0.23102 -1.25711,-0.91292 -1.7523,-1.51532 -0.49519,-0.60241 -1.75165,-1.92653 -2.79213,-2.94249 -2.35491,-2.29943 -3.03708,-3.62766 -3.05612,-5.95049 -0.0247,-3.01289 1.37529,-4.64553 4.8625,-5.67053 1.17178,-0.34442 2.86541,-0.4224 9.1737,-0.4224 h 7.73662 l 1.14505,0.87163 c 0.76751,0.58424 1.448,1.46495 2.06387,2.67112 1.73498,3.39792 1.32726,6.86145 -0.99427,8.44622 -2.3532,1.60639 -12.09989,4.95044 -14.39346,4.93834 -0.62783,-0.003 -1.52489,-0.19505 -1.99346,-0.42608 z m 1.77799,-2.47831 c 0,-0.35278 -0.17639,-0.52917 -0.52916,-0.52917 -0.35278,0 -0.52917,0.17639 -0.52917,0.52917 0,0.35277 0.17639,0.52916 0.52917,0.52916 0.35277,0 0.52916,-0.17639 0.52916,-0.52916 z m 2.64584,-0.52917 c 0,-0.35278 -0.17639,-0.52917 -0.52917,-0.52917 -0.35278,0 -0.52917,0.17639 -0.52917,0.52917 0,0.35278 0.17639,0.52917 0.52917,0.52917 0.35278,0 0.52917,-0.17639 0.52917,-0.52917 z m 2.11666,-1.05833 c 0,-0.35278 -0.17639,-0.52917 -0.52916,-0.52917 -0.35278,0 -0.52917,0.17639 -0.52917,0.52917 0,0.35277 0.17639,0.52916 0.52917,0.52916 0.35277,0 0.52916,-0.17639 0.52916,-0.52916 z m -2.11666,-0.26459 c 0,-0.35277 -0.17639,-0.52916 -0.52917,-0.52916 -0.35278,0 -0.52917,0.17639 -0.52917,0.52916 0,0.35278 0.17639,0.52917 0.52917,0.52917 0.35278,0 0.52917,-0.17639 0.52917,-0.52917 z m 6.87916,-0.79375 c 0,-0.44097 -0.17639,-0.52916 -1.05833,-0.52916 -0.88194,0 -1.05833,0.0882 -1.05833,0.52916 0,0.44098 0.17639,0.52917 1.05833,0.52917 0.88194,0 1.05833,-0.0882 1.05833,-0.52917 z m -12.17083,-0.26458 c 0,-0.35278 -0.17639,-0.52917 -0.52917,-0.52917 -0.35277,0 -0.52916,0.17639 -0.52916,0.52917 0,0.35278 0.17639,0.52917 0.52916,0.52917 0.35278,0 0.52917,-0.17639 0.52917,-0.52917 z m 1.85208,0 c 0,-0.35278 -0.17639,-0.52917 -0.52916,-0.52917 -0.35278,0 -0.52917,0.17639 -0.52917,0.52917 0,0.35278 0.17639,0.52917 0.52917,0.52917 0.35277,0 0.52916,-0.17639 0.52916,-0.52917 z m 1.32292,-0.79375 c 0,-0.35278 -0.17639,-0.52917 -0.52917,-0.52917 -0.35277,0 -0.52916,0.17639 -0.52916,0.52917 0,0.35278 0.17639,0.52917 0.52916,0.52917 0.35278,0 0.52917,-0.17639 0.52917,-0.52917 z m -3.96875,-0.79375 c 0,-0.35496 -0.17639,-0.52917 -0.53578,-0.52917 -0.38365,0 -0.58086,-0.22538 -0.69453,-0.79375 -0.10866,-0.54327 -0.3153,-0.79375 -0.65485,-0.79375 -0.54761,0 -0.57069,0.09 -0.33073,1.28985 0.11466,0.57326 0.3175,0.82682 0.66146,0.82682 0.27285,0 0.4961,0.11906 0.4961,0.26458 0,0.14552 0.23812,0.26459 0.52916,0.26459 0.35278,0 0.52917,-0.17639 0.52917,-0.52917 z m 17.4625,-0.26458 c 0,-0.35278 -0.17639,-0.52917 -0.52917,-0.52917 -0.35277,0 -0.52916,0.17639 -0.52916,0.52917 0,0.35277 0.17639,0.52916 0.52916,0.52916 0.35278,0 0.52917,-0.17639 0.52917,-0.52916 z m -2.91042,-1.05834 c 0,-0.35277 -0.17639,-0.52916 -0.52916,-0.52916 -0.35278,0 -0.52917,0.17639 -0.52917,0.52916 0,0.35278 0.17639,0.52917 0.52917,0.52917 0.35277,0 0.52916,-0.17639 0.52916,-0.52917 z m -13.22916,-1.5875 c 0,-0.35277 -0.17639,-0.52916 -0.52917,-0.52916 -0.35278,0 -0.52917,0.17639 -0.52917,0.52916 0,0.35278 0.17639,0.52917 0.52917,0.52917 0.35278,0 0.52917,-0.17639 0.52917,-0.52917 z m 13.49375,-1.05833 c 0,-0.29104 -0.11907,-0.52917 -0.26459,-0.52917 -0.14552,0 -0.26458,-0.23812 -0.26458,-0.52916 0,-0.35278 -0.17639,-0.52917 -0.52917,-0.52917 -0.35277,0 -0.52916,0.17639 -0.52916,0.52917 0,0.29104 0.11906,0.52916 0.26458,0.52916 0.14552,0 0.26458,0.23813 0.26458,0.52917 0,0.35278 0.17639,0.52917 0.52917,0.52917 0.35278,0 0.52917,-0.17639 0.52917,-0.52917 z m -16.13959,-0.52917 c 0,-0.35277 -0.17639,-0.52916 -0.52916,-0.52916 -0.35278,0 -0.52917,0.17639 -0.52917,0.52916 0,0.35278 0.17639,0.52917 0.52917,0.52917 0.35277,0 0.52916,-0.17639 0.52916,-0.52917 z m 18.25625,0 c 0,-0.35277 -0.17639,-0.52916 -0.52916,-0.52916 -0.35278,0 -0.52917,0.17639 -0.52917,0.52916 0,0.35278 0.17639,0.52917 0.52917,0.52917 0.35277,0 0.52916,-0.17639 0.52916,-0.52917 z m -16.93333,-0.26458 c 0,-0.35278 -0.17639,-0.52917 -0.52917,-0.52917 -0.35277,0 -0.52916,0.17639 -0.52916,0.52917 0,0.35278 0.17639,0.52917 0.52916,0.52917 0.35278,0 0.52917,-0.17639 0.52917,-0.52917 z m 2.38125,-0.52917 c 0,-0.35277 -0.17639,-0.52916 -0.52917,-0.52916 -0.35277,0 -0.52916,0.17639 -0.52916,0.52916 0,0.35278 0.17639,0.52917 0.52916,0.52917 0.35278,0 0.52917,-0.17639 0.52917,-0.52917 z M 223.7997,176.35 c 0,-0.35278 -0.17639,-0.52917 -0.52916,-0.52917 -0.35278,0 -0.52917,0.17639 -0.52917,0.52917 0,0.35277 0.17639,0.52916 0.52917,0.52916 0.35277,0 0.52916,-0.17639 0.52916,-0.52916 z m -3.70416,-0.23373 c 0,-0.45981 -0.6517,-0.81149 -1.52136,-0.82099 -0.50885,-0.006 -0.39185,0.99994 0.13229,1.13692 1.00847,0.26353 1.38907,0.17697 1.38907,-0.31593 z m -3.43959,-0.29544 c 0,-0.35278 -0.17639,-0.52917 -0.52916,-0.52917 -0.35278,0 -0.52917,0.17639 -0.52917,0.52917 0,0.35278 0.17639,0.52917 0.52917,0.52917 0.35277,0 0.52916,-0.17639 0.52916,-0.52917 z m 9.26042,0 c 0,-0.35278 -0.17639,-0.52917 -0.52917,-0.52917 -0.35277,0 -0.52916,0.17639 -0.52916,0.52917 0,0.35278 0.17639,0.52917 0.52916,0.52917 0.35278,0 0.52917,-0.17639 0.52917,-0.52917 z"
         id="path147"
         inkscape:connector-curvature="0" />
      <path
         style="fill:#00007e;stroke-width:0.26458332"
         d="m 172.73512,212.33333 v -39.6875 l 19.51302,0.0142 c 19.22075,0.014 19.49058,0.0214 18.01452,0.49346 -3.31599,1.06049 -4.59237,2.62006 -4.57102,5.58524 0.0167,2.32242 0.69792,3.64954 3.05439,5.95049 1.04048,1.01596 2.29864,2.34216 2.79592,2.9471 1.08601,1.32116 2.29615,1.94281 3.78196,1.94281 2.2786,0 12.0324,-3.3599 14.35347,-4.94436 2.32153,-1.58477 2.72925,-5.0483 0.99427,-8.44622 -0.61587,-1.20617 -1.29636,-2.08688 -2.06387,-2.67112 l -1.14505,-0.87163 h 12.3237 12.32369 v 39.6875 39.6875 h -39.6875 -39.6875 z m 54.76875,33.3375 c 0,-0.35278 -0.17639,-0.52917 -0.52917,-0.52917 -0.35277,0 -0.52916,0.17639 -0.52916,0.52917 0,0.35278 0.17639,0.52917 0.52916,0.52917 0.35278,0 0.52917,-0.17639 0.52917,-0.52917 z m -32.54375,-3.175 c 0,-0.35278 -0.17639,-0.52917 -0.52917,-0.52917 -0.35277,0 -0.52916,0.17639 -0.52916,0.52917 0,0.35278 0.17639,0.52917 0.52916,0.52917 0.35278,0 0.52917,-0.17639 0.52917,-0.52917 z m -9.78958,-0.26458 c 0,-0.35278 -0.17639,-0.52917 -0.52917,-0.52917 -0.35278,0 -0.52917,0.17639 -0.52917,0.52917 0,0.35277 0.17639,0.52916 0.52917,0.52916 0.35278,0 0.52917,-0.17639 0.52917,-0.52916 z m 27.25208,-0.26459 c 0,-0.35277 -0.17639,-0.52916 -0.52917,-0.52916 -0.35277,0 -0.52916,0.17639 -0.52916,0.52916 0,0.35278 0.17639,0.52917 0.52916,0.52917 0.35278,0 0.52917,-0.17639 0.52917,-0.52917 z m 19.57917,-0.52916 c 0,-0.35278 -0.17639,-0.52917 -0.52917,-0.52917 -0.35278,0 -0.52917,0.17639 -0.52917,0.52917 0,0.35277 0.17639,0.52916 0.52917,0.52916 0.35278,0 0.52917,-0.17639 0.52917,-0.52916 z m -4.7625,-2.91042 c 0,-0.35278 -0.17639,-0.52917 -0.52917,-0.52917 -0.35278,0 -0.52917,0.17639 -0.52917,0.52917 0,0.35278 0.17639,0.52917 0.52917,0.52917 0.35278,0 0.52917,-0.17639 0.52917,-0.52917 z m -35.98334,-1.59556 c 1.31783,-0.67261 2.18904,-1.70179 3.26271,-3.85429 0.74169,-1.48695 1.40676,-2.3047 3.1941,-3.92736 1.60157,-1.45403 2.63194,-2.67095 3.54678,-4.18897 1.67197,-2.77434 2.25736,-3.10257 5.53339,-3.10257 1.99336,0 2.90886,0.14751 4.92629,0.79375 2.38498,0.76398 2.66546,0.79419 7.47764,0.80536 5.19975,0.0121 6.44599,0.21315 7.55786,1.21938 1.01867,0.92188 1.36821,2.01304 1.56209,4.87644 0.26539,3.91938 0.98952,5.22087 3.68498,6.62306 0.97655,0.508 1.60231,0.62041 3.48035,0.62517 2.16257,0.005 2.34519,-0.0391 3.28866,-0.80205 1.62155,-1.31135 2.09453,-2.50311 2.09453,-5.27757 0,-2.31815 -0.0363,-2.45836 -1.37172,-5.29167 -0.95918,-2.03512 -1.54223,-3.73523 -1.9387,-5.65301 -0.62496,-3.023 -2.60149,-8.55719 -3.64923,-10.21766 -0.36878,-0.58446 -1.28216,-1.7175 -2.02972,-2.51787 -1.7808,-1.90658 -3.70129,-4.23097 -4.04423,-4.89479 -0.15036,-0.29104 -0.36013,-1.3626 -0.46616,-2.38125 -0.238,-2.28654 -0.59683,-3.00765 -2.47841,-4.98067 -1.59244,-1.66982 -3.0946,-2.66725 -4.43818,-2.94692 -1.04094,-0.21668 -6.26845,0.70967 -8.72961,1.54694 -4.04473,1.376 -5.31325,2.38368 -7.00529,5.56479 -0.47088,0.88529 -1.6517,2.80024 -2.62403,4.25544 -2.16241,3.23629 -2.59628,4.32937 -2.93563,7.39596 -0.44377,4.01012 -1.33077,5.50105 -4.56723,7.67683 -2.18612,1.46967 -2.93865,2.31325 -4.10768,4.60475 -0.83389,1.63457 -2.50029,3.34631 -4.70963,4.83779 -1.05281,0.71073 -2.0946,1.64111 -2.3151,2.0675 -1.00854,1.9503 0.0728,4.96773 2.34009,6.53023 2.15524,1.48525 3.46455,1.63228 5.46108,0.61326 z M 217.27148,215.232 c -0.60735,-0.12008 -1.50031,-0.43179 -1.98438,-0.69267 -0.67603,-0.36434 -1.50565,-0.47724 -3.57785,-0.48692 -2.45844,-0.0115 -2.75647,-0.0678 -3.35971,-0.63448 -1.36307,-1.28053 -1.11537,-2.30703 2.17247,-9.00317 1.12993,-2.30126 6.54451,-4.21754 8.72739,-3.08873 1.45315,0.75145 1.73653,1.32922 1.75505,3.57828 0.0158,1.91747 0.0849,2.17265 0.89347,3.29843 0.65253,0.90857 0.77078,1.22017 0.46302,1.22017 -0.23693,0 -0.41332,0.22583 -0.41332,0.52917 0,0.35278 0.17639,0.52917 0.52917,0.52917 0.32006,0 0.52916,-0.17639 0.52916,-0.44638 0,-0.63606 1.42929,0.76919 1.9951,1.96154 0.56204,1.18441 0.16075,2.24915 -1.06731,2.8319 -1.14078,0.54134 -2.51529,0.55148 -2.51529,0.0186 0,-0.22048 -0.23518,-0.39687 -0.52916,-0.39687 -0.35278,0 -0.52917,0.17639 -0.52917,0.52916 0,0.44025 -0.16672,0.5243 -0.99219,0.50018 -0.5457,-0.016 -1.4891,-0.12724 -2.09645,-0.24733 z m -0.61553,-1.57575 c 0,-0.14552 0.23813,-0.26459 0.52917,-0.26459 0.35278,0 0.52917,-0.17639 0.52917,-0.52916 0,-0.35278 -0.17639,-0.52917 -0.52917,-0.52917 -0.29104,0 -0.52917,0.11906 -0.52917,0.26458 0,0.14552 -0.23812,0.26459 -0.52916,0.26459 -0.35278,0 -0.52917,0.17639 -0.52917,0.52916 0,0.35278 0.17639,0.52917 0.52917,0.52917 0.29104,0 0.52916,-0.11906 0.52916,-0.26458 z m -3.48732,-1.78594 c 0.0688,-0.48484 -0.0416,-0.59531 -0.59532,-0.59531 -0.5537,0 -0.67986,0.12616 -0.67986,0.67986 0,0.5537 0.11047,0.66417 0.59532,0.59531 0.38257,-0.0543 0.62552,-0.29728 0.67986,-0.67986 z m 5.86857,0.19844 c 0,-0.35278 -0.17639,-0.52917 -0.52916,-0.52917 -0.35278,0 -0.52917,0.17639 -0.52917,0.52917 0,0.35277 0.17639,0.52916 0.52917,0.52916 0.35277,0 0.52916,-0.17639 0.52916,-0.52916 z m -7.9375,-0.26459 c 0,-0.35277 -0.17639,-0.52916 -0.52916,-0.52916 -0.35278,0 -0.52917,0.17639 -0.52917,0.52916 0,0.35278 0.17639,0.52917 0.52917,0.52917 0.35277,0 0.52916,-0.17639 0.52916,-0.52917 z m 4.23334,-0.52916 c 0,-0.35278 -0.17639,-0.52917 -0.52917,-0.52917 -0.35278,0 -0.52917,0.17639 -0.52917,0.52917 0,0.35277 0.17639,0.52916 0.52917,0.52916 0.35278,0 0.52917,-0.17639 0.52917,-0.52916 z m 2.33228,-2.04117 c 0.0629,-0.44209 -0.0833,-0.62779 -0.59531,-0.75629 -0.42926,-0.10773 -0.67864,-0.35424 -0.67864,-0.67081 0,-0.3797 -0.19155,-0.50048 -0.79375,-0.50048 -0.61736,0 -0.79375,0.11759 -0.79375,0.52916 0,0.29104 0.11906,0.52917 0.26458,0.52917 0.14552,0 0.26459,0.17859 0.26459,0.39687 0,0.21829 0.18233,0.39688 0.40517,0.39688 0.22285,0 0.47613,0.18489 0.56285,0.41086 0.23678,0.61704 1.26476,0.36434 1.36426,-0.33536 z m -5.2427,-0.34008 c 0,-0.35278 -0.17639,-0.52917 -0.52917,-0.52917 -0.35277,0 -0.52916,0.17639 -0.52916,0.52917 0,0.35277 0.17639,0.52916 0.52916,0.52916 0.35278,0 0.52917,-0.17639 0.52917,-0.52916 z m 1.5875,-0.26459 c 0,-0.35277 -0.17639,-0.52916 -0.52917,-0.52916 -0.35277,0 -0.52916,0.17639 -0.52916,0.52916 0,0.35278 0.17639,0.52917 0.52916,0.52917 0.35278,0 0.52917,-0.17639 0.52917,-0.52917 z m 5.25859,-0.42994 c 0.57327,-0.11466 0.82683,-0.3175 0.82683,-0.66146 0,-0.54761 -0.09,-0.5707 -1.28985,-0.33073 -0.57326,0.11465 -0.82682,0.3175 -0.82682,0.66146 0,0.54761 0.09,0.57069 1.28984,0.33073 z m -6.31692,-1.95131 c 0,-0.35277 -0.17639,-0.52916 -0.52917,-0.52916 -0.35278,0 -0.52917,0.17639 -0.52917,0.52916 0,0.35278 0.17639,0.52917 0.52917,0.52917 0.35278,0 0.52917,-0.17639 0.52917,-0.52917 z m 5.02708,-0.26458 c 0,-0.35278 -0.17639,-0.52917 -0.52917,-0.52917 -0.35277,0 -0.52916,0.17639 -0.52916,0.52917 0,0.35278 0.17639,0.52917 0.52916,0.52917 0.35278,0 0.52917,-0.17639 0.52917,-0.52917 z m -2.11667,-0.66146 c 0,-0.26458 0.26459,-0.39687 0.79375,-0.39687 0.61736,0 0.79375,-0.11759 0.79375,-0.52917 0,-0.44097 -0.17639,-0.52917 -1.05833,-0.52917 -0.76435,0 -1.05833,0.11025 -1.05833,0.39688 0,0.21828 -0.11907,0.39687 -0.26459,0.39687 -0.14552,0 -0.26458,0.23813 -0.26458,0.52917 0,0.35278 0.17639,0.52917 0.52917,0.52917 0.29398,0 0.52916,-0.17639 0.52916,-0.39688 z m 3.37344,-0.0345 c 0.62632,-0.16785 0.85385,-1.15898 0.26458,-1.15254 -0.86965,0.01 -1.52135,0.36119 -1.52135,0.821 0,0.52327 0.2728,0.59523 1.25677,0.33154 z m -14.22135,29.00635 c 0,-0.35278 -0.17639,-0.52917 -0.52917,-0.52917 -0.35278,0 -0.52917,0.17639 -0.52917,0.52917 0,0.35277 0.17639,0.52916 0.52917,0.52916 0.35278,0 0.52917,-0.17639 0.52917,-0.52916 z M 222.47679,233.5 c 0,-0.35278 -0.17639,-0.52917 -0.52917,-0.52917 -0.35278,0 -0.52917,0.17639 -0.52917,0.52917 0,0.35277 0.17639,0.52916 0.52917,0.52916 0.35278,0 0.52917,-0.17639 0.52917,-0.52916 z m -7.14375,-2.11667 c 0,-0.35278 -0.17639,-0.52917 -0.52917,-0.52917 -0.35278,0 -0.52917,0.17639 -0.52917,0.52917 0,0.35278 0.17639,0.52917 0.52917,0.52917 0.35278,0 0.52917,-0.17639 0.52917,-0.52917 z m 33.60208,-0.52917 c 0,-0.35277 -0.17639,-0.52916 -0.52917,-0.52916 -0.35277,0 -0.52916,0.17639 -0.52916,0.52916 0,0.35278 0.17639,0.52917 0.52916,0.52917 0.35278,0 0.52917,-0.17639 0.52917,-0.52917 z m -38.89375,-5.02708 c 0,-0.35278 -0.17639,-0.52917 -0.52917,-0.52917 -0.35277,0 -0.52916,0.17639 -0.52916,0.52917 0,0.35278 0.17639,0.52917 0.52916,0.52917 0.35278,0 0.52917,-0.17639 0.52917,-0.52917 z m -22.75417,-1.05833 c 0,-0.35278 -0.17639,-0.52917 -0.52916,-0.52917 -0.35278,0 -0.52917,0.17639 -0.52917,0.52917 0,0.35277 0.17639,0.52916 0.52917,0.52916 0.35277,0 0.52916,-0.17639 0.52916,-0.52916 z m 62.70625,-4.49792 c 0,-0.35278 -0.17639,-0.52917 -0.52916,-0.52917 -0.35278,0 -0.52917,0.17639 -0.52917,0.52917 0,0.35278 0.17639,0.52917 0.52917,0.52917 0.35277,0 0.52916,-0.17639 0.52916,-0.52917 z m -54.23958,-4.7625 c 0,-0.35278 -0.17639,-0.52917 -0.52917,-0.52917 -0.35277,0 -0.52916,0.17639 -0.52916,0.52917 0,0.35278 0.17639,0.52917 0.52916,0.52917 0.35278,0 0.52917,-0.17639 0.52917,-0.52917 z m 47.09583,-5.82083 c 0,-0.35278 -0.17639,-0.52917 -0.52916,-0.52917 -0.35278,0 -0.52917,0.17639 -0.52917,0.52917 0,0.35277 0.17639,0.52916 0.52917,0.52916 0.35277,0 0.52916,-0.17639 0.52916,-0.52916 z m -64.55833,-0.26459 c 0,-0.35277 -0.17639,-0.52916 -0.52917,-0.52916 -0.35277,0 -0.52916,0.17639 -0.52916,0.52916 0,0.35278 0.17639,0.52917 0.52916,0.52917 0.35278,0 0.52917,-0.17639 0.52917,-0.52917 z m 7.14375,-6.87916 c 0,-0.35278 -0.17639,-0.52917 -0.52917,-0.52917 -0.35277,0 -0.52916,0.17639 -0.52916,0.52917 0,0.35277 0.17639,0.52916 0.52916,0.52916 0.35278,0 0.52917,-0.17639 0.52917,-0.52916 z m 10.05417,-2.91042 c 0,-0.35278 -0.17639,-0.52917 -0.52917,-0.52917 -0.35278,0 -0.52917,0.17639 -0.52917,0.52917 0,0.35278 0.17639,0.52917 0.52917,0.52917 0.35278,0 0.52917,-0.17639 0.52917,-0.52917 z m -16.40417,-3.175 c 0,-0.35278 -0.17639,-0.52917 -0.52917,-0.52917 -0.35277,0 -0.52916,0.17639 -0.52916,0.52917 0,0.35278 0.17639,0.52917 0.52916,0.52917 0.35278,0 0.52917,-0.17639 0.52917,-0.52917 z m 20.90208,-3.43958 c 0,-0.35278 -0.17639,-0.52917 -0.52916,-0.52917 -0.35278,0 -0.52917,0.17639 -0.52917,0.52917 0,0.35277 0.17639,0.52916 0.52917,0.52916 0.35277,0 0.52916,-0.17639 0.52916,-0.52916 z m 28.83959,-1.85209 c 0,-0.35277 -0.17639,-0.52916 -0.52917,-0.52916 -0.35278,0 -0.52917,0.17639 -0.52917,0.52916 0,0.35278 0.17639,0.52917 0.52917,0.52917 0.35278,0 0.52917,-0.17639 0.52917,-0.52917 z m 9.525,-1.5875 c 0,-0.35277 -0.17639,-0.52916 -0.52917,-0.52916 -0.35278,0 -0.52917,0.17639 -0.52917,0.52916 0,0.35278 0.17639,0.52917 0.52917,0.52917 0.35278,0 0.52917,-0.17639 0.52917,-0.52917 z m -59.79584,-0.26458 c 0,-0.35278 -0.17639,-0.52917 -0.52916,-0.52917 -0.35278,0 -0.52917,0.17639 -0.52917,0.52917 0,0.35278 0.17639,0.52917 0.52917,0.52917 0.35277,0 0.52916,-0.17639 0.52916,-0.52917 z m 30.69167,-0.52917 c 0,-0.35277 -0.17639,-0.52916 -0.52917,-0.52916 -0.35277,0 -0.52916,0.17639 -0.52916,0.52916 0,0.35278 0.17639,0.52917 0.52916,0.52917 0.35278,0 0.52917,-0.17639 0.52917,-0.52917 z m -19.05,-2.38125 c 0,-0.35277 -0.17639,-0.52916 -0.52917,-0.52916 -0.35277,0 -0.52916,0.17639 -0.52916,0.52916 0,0.35278 0.17639,0.52917 0.52916,0.52917 0.35278,0 0.52917,-0.17639 0.52917,-0.52917 z m -7.9375,-2.64583 c 0,-0.35278 -0.17639,-0.52917 -0.52917,-0.52917 -0.35277,0 -0.52916,0.17639 -0.52916,0.52917 0,0.35278 0.17639,0.52917 0.52916,0.52917 0.35278,0 0.52917,-0.17639 0.52917,-0.52917 z M 188.08095,182.7 c 0,-0.35278 -0.17639,-0.52917 -0.52916,-0.52917 -0.35278,0 -0.52917,0.17639 -0.52917,0.52917 0,0.35277 0.17639,0.52916 0.52917,0.52916 0.35277,0 0.52916,-0.17639 0.52916,-0.52916 z"
         id="path145"
         inkscape:connector-curvature="0" />
    </g>
  </g>
</svg>
